<?xml version="1.0" standalone="no"?>
<!DOCTYPE svg PUBLIC "-//W3C//DTD SVG 20010904//EN"
 "http://www.w3.org/TR/2001/REC-SVG-20010904/DTD/svg10.dtd">
<svg version="1.0" xmlns="http://www.w3.org/2000/svg"
 width="869.000000pt" height="919.000000pt" viewBox="0 0 869.000000 919.000000"
 preserveAspectRatio="xMidYMid meet">
<metadata>
Created by potrace 1.16, written by Peter Selinger 2001-2019
</metadata>
<g transform="translate(0.000000,919.000000) scale(0.100000,-0.100000)"
fill="#000000" stroke="none">
<path d="M5235 8854 c-22 -2 -96 -8 -165 -14 -276 -23 -603 -92 -916 -194
-436 -142 -819 -343 -1124 -589 -117 -94 -288 -266 -356 -360 -25 -34 -47 -64
-49 -66 -2 -1 -48 33 -102 76 -122 98 -251 193 -365 267 -168 109 -268 136
-314 83 -28 -33 -39 -135 -31 -302 11 -229 94 -538 217 -808 l58 -128 -34 -52
c-19 -29 -39 -68 -44 -87 -25 -89 88 -369 228 -565 31 -44 72 -118 91 -165 38
-95 110 -244 147 -302 24 -37 24 -38 4 -38 -39 0 -90 -29 -110 -62 -62 -102
25 -225 199 -278 35 -11 71 -20 81 -20 10 0 54 -21 97 -47 143 -85 291 -145
447 -183 43 -11 80 -21 83 -24 7 -7 -164 -44 -257 -56 -46 -5 -132 -10 -190
-10 l-106 0 -13 53 c-17 67 -72 122 -173 171 -58 29 -87 37 -136 39 -74 2 -78
7 -73 117 2 63 -2 87 -23 139 -38 94 -175 317 -218 356 -36 33 -118 65 -166
65 -18 0 -51 27 -121 98 -103 106 -149 134 -247 154 -67 13 -355 17 -397 5
-42 -12 -117 -86 -143 -142 -25 -53 -32 -154 -15 -226 l8 -36 -45 -12 c-55
-14 -166 -116 -193 -178 -16 -35 -25 -42 -57 -48 -63 -10 -144 -57 -179 -103
-36 -48 -63 -126 -63 -185 0 -77 97 -412 151 -518 34 -69 94 -122 155 -139 44
-13 84 -7 164 23 10 4 34 -20 76 -76 109 -148 189 -193 384 -218 l88 -11 32
-45 c58 -81 117 -104 295 -118 59 -5 102 -16 164 -42 102 -43 187 -53 255 -30
118 40 315 191 391 300 19 27 27 29 140 43 159 19 382 65 530 108 172 50 450
163 645 261 l69 35 103 -99 c171 -163 295 -264 512 -420 l89 -64 -149 -72
c-308 -148 -539 -307 -789 -546 -136 -129 -293 -293 -386 -401 l-84 -98 -65 0
c-36 0 -105 -7 -155 -14 -221 -34 -329 -83 -382 -174 -23 -39 -25 -51 -20
-108 4 -35 4 -64 0 -64 -3 0 -49 27 -102 59 -53 33 -109 63 -126 67 -16 3 -43
19 -60 34 -46 42 -68 50 -138 50 l-64 0 -53 71 c-254 342 -656 733 -840 818
-86 39 -194 41 -290 6 -41 -15 -98 -30 -125 -34 -146 -19 -255 -167 -319 -430
-52 -213 -79 -463 -65 -592 43 -381 305 -941 667 -1422 181 -240 405 -427 593
-494 376 -135 1086 -184 1549 -107 52 9 111 24 130 34 69 36 129 120 149 210
10 44 0 91 -26 121 -12 14 -11 23 7 63 47 111 60 221 35 311 -5 17 5 24 65 48
95 38 161 85 183 127 13 26 17 55 16 113 l-2 77 83 58 c46 31 97 74 114 96 31
38 31 38 30 155 -1 136 -34 275 -109 465 l-45 114 41 74 c56 98 158 253 235
355 181 240 346 380 639 542 111 61 329 159 402 181 l40 12 144 -100 c245
-170 494 -317 634 -373 69 -27 88 -31 143 -26 77 6 188 57 303 141 l76 55 43
-21 c36 -18 65 -22 194 -26 115 -3 161 -1 192 10 l42 15 81 -193 c45 -105 81
-204 81 -219 0 -52 41 -229 72 -309 26 -68 42 -92 97 -147 93 -93 148 -114
301 -114 112 0 117 1 190 36 141 68 244 179 335 364 165 332 244 858 176 1175
-45 216 -120 422 -236 649 -154 302 -336 518 -510 602 -109 52 -251 87 -410
101 l-130 11 -24 51 c-14 28 -26 54 -28 57 -2 3 26 9 62 12 68 5 107 27 120
67 3 10 34 32 68 50 195 103 257 176 312 365 35 121 40 195 21 279 -19 80 -80
201 -112 222 -12 8 -25 26 -28 40 -18 69 -188 204 -257 204 -29 0 -55 11 -104
45 -92 63 -146 77 -227 60 -35 -7 -81 -20 -104 -29 -39 -16 -42 -16 -100 11
l-59 27 90 17 c50 10 137 23 195 29 142 16 535 14 695 -4 113 -12 133 -12 153
0 12 8 22 20 22 28 0 39 -230 309 -387 454 -227 210 -391 319 -649 432 -378
167 -889 289 -1214 290 l-75 1 92 89 c124 119 279 251 384 327 48 35 89 69 92
77 18 47 -87 82 -329 111 -130 15 -415 26 -489 19z m554 -108 c86 -15 108 -26
97 -45 -4 -6 -59 -55 -123 -108 -64 -53 -180 -159 -259 -235 l-142 -139 -93
-14 c-52 -8 -117 -21 -145 -30 -62 -18 -147 -55 -141 -61 2 -2 48 3 103 12
159 25 501 30 674 10 343 -40 688 -136 1021 -285 265 -119 511 -303 746 -561
110 -120 133 -154 117 -170 -6 -6 -71 -6 -179 1 -265 17 -564 -2 -785 -51
-192 -42 -454 -147 -658 -266 l-114 -65 -81 35 c-103 43 -151 59 -278 91 -153
39 -161 27 -19 -29 201 -79 292 -124 525 -263 240 -142 364 -240 527 -411 200
-211 402 -520 497 -760 51 -127 64 -181 47 -188 -7 -3 -60 20 -117 50 -57 30
-134 66 -171 80 -152 58 -402 105 -551 106 l-69 0 -91 68 c-122 90 -156 111
-274 170 -119 60 -267 113 -383 138 -106 22 -344 25 -483 5 -54 -7 -100 -11
-103 -8 -3 3 8 42 25 87 55 143 82 256 86 370 l4 105 -13 -71 c-37 -186 -101
-376 -177 -524 -55 -105 -177 -246 -196 -226 -4 3 2 32 12 64 26 84 31 171 11
210 -22 42 -43 52 -115 52 -34 0 -61 2 -61 5 0 3 15 56 34 118 46 154 60 241
60 387 0 136 -15 214 -58 299 -50 97 -156 175 -276 203 -122 28 -288 -35 -419
-158 -154 -145 -267 -341 -405 -704 -93 -245 -116 -297 -151 -338 -47 -56
-114 -78 -193 -63 -79 15 -121 81 -147 227 -8 48 -15 88 -15 90 0 2 -5 4 -11
4 -15 0 -4 -130 16 -197 8 -26 15 -51 15 -55 0 -35 -117 54 -173 130 -20 26
-86 142 -147 258 -139 261 -179 320 -273 412 -76 73 -93 82 -115 60 -9 -9 -3
-17 30 -33 l43 -20 6 -120 c3 -66 10 -136 14 -156 11 -56 -10 -57 -45 -2 -77
120 -148 296 -157 388 -5 47 -2 54 47 128 49 72 118 137 146 137 19 0 61 -55
132 -177 37 -63 68 -106 70 -97 5 21 -70 175 -114 237 -43 59 -42 67 17 206
120 284 339 613 530 796 513 492 1303 820 2184 909 98 10 603 -3 684 -18z
m-3754 -791 c127 -66 475 -325 512 -381 30 -47 21 -95 -35 -187 -64 -106 -114
-205 -171 -341 -46 -109 -47 -110 -104 -144 -32 -18 -65 -31 -73 -28 -19 7
-92 164 -148 320 -83 229 -126 447 -126 643 0 164 22 182 145 118z m4324
-1114 c-76 -78 -89 -109 -89 -213 0 -37 -4 -70 -10 -73 -5 -3 -66 28 -135 68
-91 55 -121 77 -112 85 35 28 385 202 408 202 4 0 -24 -31 -62 -69z m304 53
c76 -26 77 -35 13 -106 -74 -81 -113 -162 -128 -263 -6 -44 -16 -86 -21 -92
-5 -7 -26 -13 -46 -12 -100 3 -122 31 -128 167 -6 119 6 151 76 213 66 60 142
109 167 109 11 0 41 -7 67 -16z m383 -14 c63 -31 110 -72 100 -88 -3 -5 -27
-17 -53 -27 -70 -26 -223 -104 -259 -132 -48 -36 -75 -110 -83 -224 -3 -54
-12 -104 -18 -110 -8 -8 -28 -9 -69 -3 -56 9 -59 10 -82 57 l-25 47 16 105
c21 130 49 190 131 270 65 64 122 96 209 120 70 19 66 19 133 -15z m-2748 -49
c79 -40 131 -91 170 -170 86 -173 81 -401 -15 -684 l-37 -109 -70 -54 c-39
-30 -84 -65 -101 -78 l-30 -25 3 92 c7 170 -70 429 -150 509 -44 44 -66 47
-98 13 -60 -64 -22 -363 70 -545 28 -56 62 -97 95 -116 16 -9 8 -18 -71 -70
-50 -34 -126 -74 -170 -90 -71 -26 -90 -29 -194 -28 -103 1 -134 6 -300 49
-170 45 -194 49 -300 48 -63 0 -124 -2 -135 -4 -16 -3 -21 2 -23 30 l-3 33 38
-6 c143 -24 207 -17 262 30 46 38 75 97 171 346 153 395 244 556 392 694 181
167 344 212 496 135z m3028 -82 c18 -11 48 -38 69 -60 27 -30 34 -45 29 -62
-3 -12 -7 -23 -8 -23 -8 -9 -140 -63 -146 -59 -4 3 -11 21 -15 41 -23 126
-168 106 -281 -39 -84 -107 -88 -118 -81 -214 7 -93 9 -91 -68 -65 l-50 17 1
87 c3 176 43 234 213 316 198 95 263 107 337 61z m-113 -136 c8 -10 20 -47 27
-83 6 -36 23 -121 37 -190 36 -176 30 -267 -25 -411 -58 -152 -83 -199 -107
-204 -53 -10 -144 -15 -163 -8 -11 5 -58 62 -103 128 -89 131 -207 281 -263
334 -20 19 -36 41 -36 48 0 7 14 20 32 29 27 14 43 15 108 6 88 -13 190 -48
190 -66 0 -6 -5 -17 -10 -22 -13 -13 -25 -167 -15 -191 6 -14 10 -10 16 22 4
22 8 58 8 81 1 22 7 49 15 59 13 18 14 17 30 -14 30 -56 29 -26 0 61 -34 99
-39 213 -12 264 34 63 100 136 141 155 53 24 109 25 130 2z m287 -80 c37 -34
80 -153 80 -222 0 -53 -27 -165 -61 -256 -26 -70 -96 -144 -177 -188 -85 -46
-91 -24 -36 134 42 122 42 157 -1 339 -25 105 -25 117 -12 146 18 38 86 74
139 74 27 0 46 -8 68 -27z m-1134 -91 c14 -17 41 -30 90 -41 61 -15 72 -22 96
-57 15 -21 27 -48 25 -59 -4 -39 -36 -27 -119 47 -45 40 -97 87 -116 104 -27
24 -33 35 -28 50 8 19 8 19 19 0 7 -10 21 -30 33 -44z m-3999 -24 c58 -64 317
-541 334 -615 13 -62 61 -161 105 -219 19 -25 33 -48 30 -52 -10 -9 -180 19
-203 33 -28 18 -126 177 -173 280 -87 190 -127 333 -137 493 -5 86 -4 102 9
102 8 0 24 -10 35 -22z m1689 -130 c71 -81 144 -320 144 -475 0 -66 -22 -123
-48 -123 -74 0 -182 280 -186 480 -1 106 10 140 48 140 12 0 31 -10 42 -22z
m-2559 -239 c106 -14 151 -36 225 -111 79 -79 270 -363 323 -480 38 -83 55
-106 55 -74 0 32 -84 206 -140 291 -33 50 -60 97 -60 104 0 17 68 8 112 -15
34 -18 120 -145 190 -282 42 -81 48 -100 48 -155 0 -92 -4 -95 -90 -67 -87 28
-162 29 -215 4 -78 -36 -346 -317 -394 -413 -36 -71 -51 -163 -51 -328 0 -140
-2 -153 -19 -163 -46 -24 -202 1 -277 45 -54 32 -98 82 -185 211 -111 166
-199 362 -199 444 0 22 -4 40 -9 40 -12 0 -22 -72 -14 -110 l6 -32 -39 5 c-21
3 -52 8 -69 12 l-30 6 23 -20 c12 -11 47 -25 77 -31 50 -10 56 -14 83 -63 46
-82 91 -189 85 -204 -9 -23 -65 -46 -110 -46 -99 0 -148 84 -239 412 -40 148
-42 198 -10 268 30 63 89 102 168 110 47 4 78 0 218 -34 49 -11 4 18 -62 41
-63 22 -63 22 -62 60 1 31 10 47 54 91 74 75 92 81 193 65 155 -24 150 -24
176 4 31 33 24 40 -23 21 -44 -19 -134 -11 -143 13 -10 25 29 82 72 107 26 16
74 29 134 38 85 13 118 28 105 48 -2 4 -25 1 -51 -6 -27 -7 -82 -20 -123 -29
-44 -10 -88 -27 -108 -43 -46 -34 -54 -21 -50 84 3 73 6 85 34 120 49 61 83
73 206 73 59 0 142 -5 185 -11z m3067 -210 c41 -19 51 -60 38 -153 -15 -105
-73 -225 -146 -304 l-54 -57 -68 0 c-77 -1 -120 -16 -389 -143 -82 -38 -194
-84 -248 -102 -94 -31 -103 -32 -215 -27 -184 8 -448 84 -627 180 -33 18 -59
36 -58 42 1 5 44 17 95 26 111 20 136 29 165 60 55 61 30 118 -65 146 l-57 16
35 15 c71 31 184 21 420 -38 194 -48 226 -54 325 -54 101 0 117 2 190 32 101
40 203 106 332 214 118 99 158 125 216 144 53 16 80 17 111 3z m863 -44 c238
-39 522 -174 734 -351 96 -80 269 -282 269 -314 0 -14 -28 -12 -167 14 -108
20 -379 29 -526 17 -64 -6 -177 -24 -249 -42 l-132 -32 -36 43 c-116 140 -259
268 -283 253 -6 -3 27 -41 76 -87 158 -149 245 -292 298 -492 38 -144 112
-361 150 -435 88 -177 313 -399 506 -500 92 -48 109 -44 221 64 53 51 156 148
229 215 l132 121 53 -15 c123 -37 219 -108 240 -176 l12 -40 -45 -41 c-24 -22
-123 -115 -219 -207 -180 -170 -248 -224 -359 -280 -94 -47 -150 -50 -241 -11
-151 63 -390 208 -695 421 -153 107 -210 138 -358 194 -92 35 -115 56 -63 56
13 0 35 9 50 21 21 16 26 29 26 64 0 38 -5 48 -45 87 -83 82 -277 187 -535
289 -130 52 -320 148 -366 184 -15 12 -24 26 -21 32 4 6 58 45 120 86 183 122
263 222 243 302 -3 14 -9 35 -12 48 -5 20 9 36 94 110 110 95 180 172 257 280
30 42 64 77 86 89 84 43 382 61 556 33z m-2646 -73 c20 -63 79 -152 101 -152
4 0 8 19 8 42 0 55 18 39 26 -23 5 -38 3 -47 -11 -53 -36 -14 -165 165 -165
229 0 28 27 -1 41 -43z m-266 -199 c-27 -64 22 -97 167 -110 54 -5 72 -2 93
11 22 14 25 23 20 43 l-6 26 87 -7 c300 -23 183 -160 -136 -160 -117 0 -183
19 -259 74 -79 58 -65 129 28 139 9 1 11 -5 6 -16z m166 -13 c55 -11 97 -39
85 -59 -15 -24 -184 -5 -222 25 -18 14 -18 14 0 29 23 18 62 19 137 5z m4578
-81 c144 -13 277 -47 369 -93 272 -137 589 -682 697 -1201 73 -347 -46 -953
-245 -1245 -65 -95 -203 -210 -226 -187 -4 3 21 36 55 73 262 286 438 850 377
1204 -51 294 -233 696 -451 996 -112 153 -155 197 -225 228 -75 34 -213 63
-337 72 -50 4 -95 10 -100 13 -14 10 -63 133 -57 142 7 11 5 11 143 -2z m-690
-94 c148 -30 232 -55 238 -71 2 -6 -30 -62 -72 -125 -106 -158 -164 -267 -171
-323 -6 -38 -12 -50 -40 -67 -44 -27 -123 -115 -130 -146 -4 -13 -3 -48 2 -76
l9 -52 -50 -20 c-41 -17 -55 -30 -83 -75 -37 -62 -48 -95 -64 -197 -10 -66
-10 -76 11 -129 l22 -57 -38 -39 c-20 -21 -43 -38 -50 -38 -43 0 -198 105
-300 203 -63 60 -74 77 -51 77 7 0 53 20 103 44 193 94 475 339 475 412 0 24
-18 44 -41 44 -9 0 -68 -22 -130 -49 -191 -82 -363 -129 -569 -156 l-46 -6
-42 123 c-33 98 -82 261 -82 275 0 2 19 3 43 3 95 0 255 -34 485 -102 255 -75
273 -77 280 -30 5 35 -91 198 -169 287 l-31 35 44 0 c58 0 133 -13 295 -52
110 -27 134 -30 147 -19 9 8 16 22 16 32 0 21 -96 166 -169 257 l-51 62 41 0
c23 0 98 -11 168 -25z m-2191 -61 c86 -60 12 -177 -200 -315 -51 -33 -177
-102 -279 -153 -655 -327 -1244 -440 -1709 -326 -141 34 -144 38 -125 115 11
41 24 60 71 103 32 29 88 73 124 98 l67 45 329 5 c376 6 463 17 684 84 365
111 500 160 680 245 251 120 307 135 358 99z m2686 -85 c54 -34 102 -57 106
-53 5 5 10 32 12 59 l3 50 60 -3 c143 -7 322 -49 391 -91 53 -32 304 -369 304
-407 0 -7 -24 -47 -54 -88 -57 -80 -96 -167 -96 -215 0 -16 7 -48 15 -71 8
-23 15 -48 15 -56 0 -20 -108 -132 -173 -181 -50 -36 -188 -93 -228 -93 -5 0
-9 17 -9 39 0 87 -30 215 -63 269 -70 113 -256 297 -383 379 l-69 44 -122 -5
-123 -6 -6 25 c-18 72 241 465 306 465 9 0 61 -27 114 -61z m-4891 -6 c40 -21
72 -44 72 -52 0 -15 -150 -73 -180 -69 -17 3 -15 9 23 47 23 24 41 46 38 48
-10 10 -61 -13 -92 -43 -25 -23 -35 -40 -32 -56 5 -36 50 -34 163 8 78 28 120
37 190 41 84 5 95 4 145 -22 109 -55 119 -66 146 -177 l6 -28 -71 0 c-53 0
-79 5 -103 20 -54 33 -94 26 -178 -29 -107 -71 -244 -193 -264 -236 -12 -25
-18 -62 -18 -120 -1 -97 11 -124 93 -200 46 -43 54 -47 89 -42 52 7 123 44
178 92 44 39 46 39 116 36 39 -1 73 -4 75 -6 7 -8 -40 -72 -91 -122 -58 -56
-208 -155 -265 -174 -47 -15 -124 -6 -198 23 -80 32 -93 60 -106 227 -5 69
-14 130 -19 135 -14 14 -38 -11 -66 -66 -34 -68 -32 -93 5 -48 16 19 33 31 38
27 10 -10 31 -176 25 -200 -6 -25 -40 -30 -136 -18 -105 13 -135 27 -174 87
-38 57 -46 103 -46 274 1 139 17 238 50 303 33 65 220 268 293 319 111 77 177
82 294 21z m3806 -110 c72 -77 171 -211 171 -230 0 -10 -6 -14 -17 -10 -10 2
-90 26 -178 52 -202 59 -278 73 -423 81 -125 7 -152 18 -152 59 0 24 29 42
100 63 100 30 291 53 390 47 53 -3 57 -6 109 -62z m936 -352 c97 -44 288 -228
387 -374 42 -61 61 -129 74 -264 l6 -71 -39 -21 c-22 -11 -61 -36 -87 -56 -27
-20 -49 -35 -51 -33 -7 9 -55 249 -55 276 0 39 7 40 50 2 63 -54 69 -34 9 34
-46 53 -62 56 -85 21 -19 -30 -16 -65 21 -192 35 -119 33 -178 -6 -234 -16
-24 -50 -74 -74 -111 -30 -45 -53 -70 -70 -74 -14 -3 -87 -5 -163 -2 -111 3
-144 7 -165 21 -45 29 -35 52 60 130 20 18 23 18 64 -4 126 -64 156 -49 178
86 20 126 23 202 8 237 -41 98 -247 208 -390 208 -65 0 -107 -39 -107 -99 0
-37 -5 -45 -71 -103 -38 -35 -75 -63 -82 -63 -7 0 -20 17 -31 38 -17 35 -17
46 -7 109 13 80 44 158 72 184 10 9 79 31 154 49 152 36 181 51 187 94 6 40
-7 61 -39 61 l-27 0 22 -20 c26 -25 27 -29 7 -57 -18 -25 -102 -56 -142 -51
-23 3 -29 10 -40 53 -19 75 -16 91 24 136 46 50 73 64 170 88 101 25 186 26
238 2z m-2653 -27 c40 -20 133 -61 207 -90 281 -113 514 -248 548 -319 15 -31
15 -36 0 -59 -22 -32 -72 -42 -144 -27 -43 8 -78 27 -157 83 -169 120 -290
214 -403 312 -170 147 -179 164 -51 100z m3799 -178 c81 -167 166 -400 176
-485 5 -43 2 -54 -26 -94 -62 -90 -113 -110 -151 -57 -57 80 -218 474 -228
557 -3 30 2 54 18 88 33 67 109 167 122 159 6 -4 46 -79 89 -168z m-1896 4
c-98 -97 -295 -217 -421 -257 l-57 -18 -26 34 c-41 53 -72 114 -62 124 5 5 54
16 108 24 129 18 290 58 383 93 98 37 112 37 75 0z m-4005 -70 c41 -11 99 -23
128 -27 29 -3 55 -10 58 -14 13 -22 -121 -109 -168 -109 -43 0 -129 116 -115
154 8 20 6 20 97 -4z m4405 -210 c-31 -32 -55 -39 -55 -16 0 23 29 46 58 46
l26 0 -29 -30z m1305 -42 c13 -35 50 -120 83 -190 l60 -127 -41 -48 c-110
-132 -157 -159 -372 -215 -191 -50 -330 -42 -452 25 -29 16 -38 27 -38 47 0
56 135 216 215 253 29 14 59 35 67 46 9 13 38 25 82 36 96 22 169 63 272 155
49 43 92 79 95 79 4 1 17 -27 29 -61z m-2843 -119 c170 -68 205 -86 201 -106
-2 -10 -52 -38 -133 -73 -397 -172 -653 -348 -857 -590 -94 -111 -211 -278
-298 -423 -29 -49 -59 -91 -66 -94 -7 -2 -45 23 -86 57 -85 72 -203 133 -308
159 -48 12 -76 24 -78 34 -5 23 100 141 322 362 220 220 348 328 531 447 160
105 453 254 550 279 45 12 82 3 222 -52z m1913 -246 c-6 -28 -18 -57 -25 -63
-21 -17 -79 -4 -112 25 l-28 24 85 79 85 79 3 -46 c2 -25 -1 -69 -8 -98z
m1317 -72 c-9 -208 -65 -422 -167 -639 -90 -189 -194 -328 -313 -418 -61 -46
-63 -46 -125 -41 -194 15 -302 167 -341 477 -7 57 -27 118 -84 255 -47 110
-72 184 -66 189 5 6 37 3 83 -8 143 -34 292 -17 506 58 96 34 122 52 209 140
l74 75 25 -20 c42 -33 77 -25 135 30 28 27 56 47 61 44 5 -3 6 -65 3 -142z
m-6962 -40 c234 -125 700 -625 973 -1044 124 -189 180 -489 123 -657 -34 -100
-93 -220 -108 -220 -21 0 -627 920 -774 1175 -285 496 -340 579 -455 691 l-63
61 47 17 c77 26 184 17 257 -23z m-297 -55 c103 -82 197 -218 431 -624 189
-328 200 -345 504 -802 386 -579 525 -776 591 -841 194 -186 501 -381 671
-424 109 -28 176 -16 243 41 25 21 49 34 57 30 38 -14 -1 -133 -61 -185 -42
-38 -88 -45 -252 -39 -142 5 -201 21 -297 79 -126 75 -324 289 -559 604 -232
309 -614 876 -722 1070 -34 61 -106 191 -161 290 -172 312 -270 458 -392 588
-113 119 -194 147 -290 97 -24 -12 -45 -19 -47 -17 -11 11 84 132 116 149 57
30 117 24 168 -16z m-81 -147 c52 -25 158 -138 246 -262 130 -182 129 -192
-16 -185 -99 5 -513 81 -530 98 -12 11 21 167 45 215 33 65 75 111 121 134 53
26 80 26 134 0z m-123 -418 c233 -48 352 -64 432 -57 l72 7 33 -58 c110 -196
229 -417 229 -429 0 -8 -12 -17 -26 -20 -32 -8 -369 3 -509 17 -93 9 -369 53
-407 65 -19 6 -24 25 -38 136 -14 111 8 344 34 360 17 12 28 10 180 -21z
m2734 -144 c214 -77 315 -181 402 -418 49 -133 80 -266 87 -375 l6 -101 -38
-37 c-52 -52 -173 -129 -191 -122 -39 15 -112 236 -116 355 l-3 66 27 -2 c15
-1 44 -13 64 -27 59 -40 55 -20 -8 40 -62 60 -89 67 -106 29 -32 -71 1 -235
84 -416 36 -79 47 -114 51 -172 4 -48 1 -81 -6 -96 -14 -25 -162 -101 -196
-101 -39 0 -62 41 -105 185 -72 241 -139 395 -237 543 -50 75 -73 98 -73 72 0
-6 25 -52 55 -102 30 -50 55 -95 55 -101 0 -5 -19 8 -42 30 -70 63 -187 147
-283 202 -49 28 -92 51 -96 51 -3 0 -14 18 -24 39 -9 21 -37 58 -61 82 -24 24
-44 47 -44 53 0 15 185 -1 322 -28 126 -26 158 -26 158 -1 0 17 -51 60 -101
86 -46 23 -49 16 -12 -23 l27 -28 -38 0 c-20 0 -67 4 -104 10 -37 5 -93 12
-125 16 -57 5 -59 7 -78 47 -27 60 -25 118 5 150 74 80 277 128 521 123 131
-3 159 -6 223 -29z m-1181 -153 c18 -20 53 -64 76 -98 28 -42 43 -56 45 -44 2
9 -2 26 -7 37 -15 28 -14 41 5 41 18 0 201 -116 261 -165 56 -47 97 -135 138
-299 46 -183 66 -333 72 -532 5 -161 4 -176 -21 -274 -31 -121 -83 -233 -109
-238 -21 -4 -132 78 -237 175 -77 72 -250 308 -250 342 0 12 11 43 24 69 52
104 97 242 103 321 14 191 -51 409 -179 599 -27 40 -47 80 -44 88 3 9 20 14
47 14 35 0 47 -6 76 -36z m-1553 -239 c189 -32 357 -45 598 -45 l198 0 32 -52
c18 -29 95 -147 172 -263 76 -115 141 -218 144 -227 7 -26 -48 -32 -308 -31
-178 0 -273 6 -390 21 -130 18 -410 68 -416 75 -24 29 -128 281 -174 420 -30
93 -33 127 -10 127 6 0 75 -11 154 -25z m2193 -209 c102 -63 251 -184 307
-249 30 -35 58 -83 77 -132 60 -157 169 -553 169 -615 0 -38 -50 -190 -84
-259 -14 -27 -40 -59 -57 -72 -40 -28 -117 -36 -191 -19 -67 15 -262 109 -308
148 l-35 30 24 64 c13 34 40 106 60 158 l36 95 -1 165 c-1 211 -39 493 -90
664 -7 27 -14 53 -14 58 0 19 40 5 107 -36z m-2020 -370 c232 -49 359 -60 692
-61 l323 -1 90 -129 c50 -72 137 -194 194 -272 57 -77 104 -146 104 -152 0
-20 -42 -29 -186 -40 -252 -20 -463 -12 -739 29 -236 34 -222 28 -290 128
-130 188 -305 480 -305 507 0 9 47 5 117 -9z m488 -655 c287 -42 667 -47 891
-11 65 11 66 10 87 -17 184 -235 393 -429 515 -478 23 -10 42 -21 42 -25 0
-16 -37 -20 -209 -20 -392 0 -776 54 -999 140 -149 57 -340 204 -468 359 -54
65 -60 87 -20 77 11 -3 84 -14 161 -25z"/>
<path d="M4581 8360 c-371 -141 -729 -397 -907 -646 -76 -106 -44 -94 59 22
196 221 392 369 664 502 219 107 329 135 369 95 22 -23 15 -103 -30 -340 -51
-260 -62 -387 -47 -528 11 -103 27 -185 31 -160 1 6 3 109 4 230 1 183 5 239
24 335 80 405 83 420 72 460 -22 82 -83 89 -239 30z"/>
<path d="M4445 8092 c-219 -117 -555 -373 -555 -423 0 -14 14 -22 58 -34 232
-64 325 -103 451 -189 46 -31 89 -55 97 -52 31 12 62 224 70 486 6 197 0 243
-32 247 -10 2 -50 -14 -89 -35z m91 -39 c17 -65 -18 -566 -41 -604 -10 -16
-35 -10 -78 19 -115 78 -247 136 -389 172 -92 24 -104 31 -92 53 15 26 160
141 285 227 238 162 301 189 315 133z"/>
<path d="M4115 7254 c-123 -19 -274 -94 -398 -198 -85 -71 -234 -271 -302
-407 -38 -75 -40 -79 -25 -79 5 0 37 46 72 102 222 362 417 512 703 543 70 8
173 -8 227 -36 51 -26 135 -115 189 -199 62 -98 81 -93 34 8 -51 111 -155 215
-246 248 -44 15 -198 26 -254 18z"/>
<path d="M4036 6093 c-19 -50 50 -293 84 -293 37 0 -2 241 -48 293 -19 21 -28
22 -36 0z m34 -90 c-1 -24 -2 -26 -11 -10 -5 9 -7 22 -4 27 10 17 15 11 15
-17z"/>
<path d="M4395 5666 c-22 -7 -53 -20 -70 -30 l-30 -17 43 6 c25 3 42 1 42 -5
0 -5 -46 -57 -101 -115 -105 -109 -193 -180 -291 -235 -76 -42 -83 -56 -16
-29 72 28 131 63 204 120 62 49 184 172 225 228 26 35 39 39 39 14 1 -16 2
-16 16 2 18 24 15 69 -6 72 -8 1 -33 -4 -55 -11z"/>
<path d="M7997 4402 c-23 -25 -21 -44 8 -143 34 -114 81 -208 111 -221 28 -13
42 -5 25 15 -8 11 -8 21 3 41 12 24 12 36 0 88 -16 66 -59 180 -82 216 -17 27
-43 28 -65 4z m61 -54 c22 -48 72 -202 72 -222 0 -8 -6 -19 -14 -26 -12 -9
-18 -5 -34 27 -24 45 -72 200 -72 229 0 21 8 34 21 34 4 0 16 -19 27 -42z"/>
<path d="M6778 6973 c7 -3 16 -2 19 1 4 3 -2 6 -13 5 -11 0 -14 -3 -6 -6z"/>
<path d="M2367 5593 c-4 -3 -7 -11 -7 -17 0 -6 5 -5 12 2 6 6 9 14 7 17 -3 3
-9 2 -12 -2z"/>
</g>
</svg>
