<svg width="256" height="256" viewBox="0 0 256 256" fill="none" xmlns="http://www.w3.org/2000/svg">
<path d="M134.704 42.1899C159.714 41.0499 186.754 42.0599 209.484 52.6099C214.234 55.0299 218.184 57.1799 219.754 59.1099C221.144 60.8199 221.654 64.5799 218.874 66.0199C214.744 68.7499 210.614 69.8399 205.134 72.5099C194.794 77.4899 185.784 82.4699 173.234 89.9999C172.074 90.7399 172.804 90.9599 173.284 90.9799C193.644 93.9299 207.534 98.1699 218.044 105.05C233.374 115.21 243.124 128.88 253.254 147.81C255.884 152.71 254.024 152.79 251.874 152.58C247.584 152.69 244.104 151.69 238.774 151.14C229.084 149.97 219.174 149.33 207.274 150.34C204.544 150.77 200.054 151.63 196.304 152.69C195.044 153.08 195.024 153.89 196.374 154.84C204.954 161.85 214.144 171.36 220.264 179.75C227.714 190.43 234.254 203.69 234.304 213.91C234.634 217.11 233.394 218.06 230.944 217.81C228.084 217.64 225.844 215.83 222.454 214.23C197.074 201.51 174.374 191.2 142.084 188.76C137.884 188.49 134.574 188.09 130.244 188.1C128.044 188.09 127.134 188.68 125.974 189.53C114.684 197.39 99.8736 202.71 84.6236 202.71C77.0236 202.71 71.0536 201.36 64.6836 198.16C62.1036 197.13 60.0636 197.71 57.6636 198.52C51.1736 200.15 44.7636 198.94 40.0236 194.45C35.7136 190.41 37.1436 184.1 42.8736 182.84C44.7436 182.49 45.0936 181.71 43.7836 180.13C39.9536 175.51 37.3836 168.01 36.0736 163.92C34.8136 160.63 30.1236 158.59 27.5436 154.89C24.1136 150.27 24.5936 146.06 24.3036 142.15C24.0736 139.19 22.7236 137.41 20.5436 135.47C10.2836 125.79 1.8836 113.17 3.0736 101.21C3.3436 98.1899 4.4936 97.8799 6.3736 97.4099C10.5736 96.7199 13.8036 96.4599 17.1236 96.4599C22.7736 96.4599 29.9436 97.8799 35.9436 98.3899C38.6336 98.7499 39.3536 98.0099 40.2736 96.6099C56.0236 74.0099 78.0436 56.7599 107.684 47.3099C113.074 45.6199 116.994 38.8599 124.744 38.0599C127.724 37.8799 130.014 42.4199 134.704 42.1899ZM131.934 47.7199C129.674 47.8799 130.174 49.4499 130.304 51.3599C130.914 60.0199 131.874 72.4599 131.644 79.4199C131.234 85.6699 131.004 91.0999 129.674 92.9199C128.754 93.8499 128.394 92.1899 128.424 90.8699C128.594 85.0099 128.674 77.8799 128.184 71.9199C127.584 64.9099 127.654 55.2299 126.604 47.2399C126.344 45.7199 125.024 45.1599 122.574 46.3799C110.984 52.1799 98.8836 65.9099 90.0236 79.6999C88.7536 81.6099 87.3736 81.2599 87.8736 79.5699C91.0236 72.0199 96.0136 65.4699 102.704 57.0299C104.044 55.3099 103.094 55.0799 101.574 55.7899C77.6836 65.3699 59.0836 76.6899 46.4536 99.7199C41.8436 107.83 38.0136 118.06 37.0636 126.41C36.6836 129.75 37.2336 130.91 38.1036 132.41C38.8836 133.55 38.4236 134.77 37.1336 133.71C32.5736 131.01 30.1536 134.08 29.9736 139.51C29.6236 146.41 30.2536 150.88 35.2436 153.92C36.8436 154.98 37.0236 153.79 36.6836 152.02C36.4136 150.38 35.6736 148.15 35.8036 146.24C35.8236 144.92 36.6436 144.77 37.4836 145.3C43.9036 149.29 46.7036 158.03 50.5336 163.19C51.6936 164.79 52.9536 165.23 54.1936 163.47C54.8836 162.46 55.3936 162.71 56.1036 164.03C57.9736 167.45 59.5836 169.73 62.0336 171.91C65.0336 174.22 67.8036 171.49 68.4936 167.35C70.4736 157.31 70.2136 147.21 73.6536 135.79C77.2436 124.07 82.5136 113.11 94.6136 112.7C106.054 112.44 115.924 123.41 117.024 139.06C117.184 143.25 117.294 148.74 116.874 152.92C116.674 154.52 117.674 154.67 118.884 154.32C128.374 151.92 133.444 158.77 133.624 167.65C133.574 170.22 132.474 172.51 131.364 175.21C133.714 174.39 135.744 171.64 139.064 169.02C140.374 167.96 141.194 169.17 140.074 171.36C137.884 175.92 135.254 178.11 132.254 179.98C131.044 180.79 131.164 181.35 132.914 181.38C143.144 182.26 149.814 182.44 159.024 184.09C181.334 187.95 198.854 193.71 224.284 207.92C225.704 208.82 225.884 208.13 225.244 206.19C215.984 182.21 194.614 162.21 171.084 147.81C168.074 145.95 165.954 145.61 163.704 144.73C162.184 144.12 162.574 143.03 164.674 143.21C172.144 143.67 177.274 145.98 184.074 148.81C186.194 149.57 187.224 148.81 188.794 147.96C195.794 144.43 205.994 143.41 218.094 143.31C224.984 143.16 234.724 144.92 244.584 145.93C246.774 146.29 246.374 145.07 245.634 143.59C236.844 127.07 225.624 115.03 207.874 107.22C193.674 100.6 176.814 98.0399 148.794 92.9099C146.774 92.5499 146.444 90.8699 149.074 90.8699C153.204 90.5099 157.874 90.8699 159.894 90.1799C162.574 89.3199 164.854 87.1299 167.844 84.7899C178.884 76.2499 194.354 69.9399 209.914 63.4299C211.384 62.7399 211.684 61.5299 209.664 60.6499C190.714 51.4099 168.374 47.2099 144.024 47.1099C140.154 47.1099 136.374 47.3099 131.934 47.7199ZM15.7336 102.07C13.1536 102.63 10.0136 102.68 9.7136 103.9C9.0236 107.47 14.1236 117.15 20.7636 125.36C23.3436 128.21 25.2136 130.3 27.0236 132.77C27.9436 134.12 28.9436 133.86 29.5736 132.51C30.6336 130.38 32.6636 129.16 33.7136 127.52C34.8736 121.19 36.9936 113.02 39.5736 106.64C40.2636 105.32 40.0636 105.07 38.0436 104.61C31.1036 103.04 23.7936 101.59 17.5836 101.59C17.0136 101.59 16.3936 101.79 15.7336 102.07ZM96.1736 96.8399C82.2236 98.6499 72.2736 107.52 68.7336 124.31C68.1236 128.06 68.4836 130.81 69.1736 130.66C69.9936 130.51 70.1936 127.63 71.2936 123.72C73.3136 116.61 75.7636 110.15 84.1536 104.44C90.1636 100.63 96.9336 99.7199 101.474 101.17C107.214 103.09 112.034 110.17 116.424 116.27C118.824 120.21 120.114 124.36 120.774 123.9C122.114 123.11 120.744 115.31 116.614 110.09C110.074 101.74 104.714 96.5099 96.1736 96.8399ZM95.0836 138.71C87.6836 139.61 89.9236 156.76 97.7336 167.13C99.1836 168.99 100.834 169.95 102.124 170.71C101.014 173.16 97.8136 174.95 94.0436 174.8C87.3236 174.7 83.3236 173.96 76.2536 173.96C71.6936 173.88 68.2236 176.33 65.4336 178.85C66.3536 179.75 68.2236 181.25 68.4536 182.41C68.6136 185.14 66.1936 187.43 64.6236 189.36C63.8536 190.26 63.8236 190.97 65.0536 191.41C70.1236 193.71 72.1736 196.08 83.2936 196.61C99.9136 197.62 114.674 191.22 123.984 181.61C128.684 177.01 131.814 171.11 129.694 165.1C127.724 158.72 123.304 157.14 117.814 158.72C113.074 160.17 111.384 165.38 108.654 169.14C105.814 173.23 101.614 177.14 93.7436 177.09C87.3736 177.01 84.3836 176.84 78.1836 176.76C73.2136 176.61 70.1736 177.95 68.4336 179.43C67.4836 178.82 67.0736 178.06 66.6136 177.37C71.8136 175.26 72.9236 171.29 73.7236 162.56C74.5136 149.26 75.7236 130.13 85.2236 120.09C89.1436 116.82 92.4136 116.21 96.1136 116.13C105.614 116.31 112.104 124.55 113.624 139.19C113.724 146.13 114.414 149.84 113.354 156.06C112.994 158.05 111.474 159.58 110.414 158.05C107.814 150.43 104.144 138.31 96.9036 138.31C96.3436 138.31 95.7136 138.41 95.0836 138.71ZM40.7236 152.69C39.7036 153.81 41.8536 162.64 44.1736 169.04C46.6236 175.05 50.1136 179.04 54.3936 181.94C55.1636 182.44 56.0636 181.83 55.1136 180.82C51.1836 177.07 49.0436 171.16 47.2236 166.26C45.6236 161.85 43.5236 156.36 41.5536 153.23C41.1936 152.62 40.8836 152.42 40.7236 152.69ZM95.2836 144.12C92.5236 146.87 94.8236 156.48 99.7136 164.13C102.294 168.21 105.934 168.87 106.914 165.42C107.994 160.7 105.024 150.28 100.054 145.12C98.1936 143.31 96.5236 142.8 95.2836 144.12ZM100.054 146.71C101.114 147.32 102.094 148.48 102.624 149.64C104.284 152.98 106.144 158.23 106.624 162.66C106.884 165.72 105.074 167.09 102.624 164.31C98.1136 159.05 95.9236 152.35 95.7436 148.12C95.7436 145.72 97.4836 145.26 100.054 146.71ZM97.0336 148.83C96.2136 149.84 97.0336 152.62 97.9136 153.84C98.9736 154.84 100.074 154.15 99.9236 152.22C99.8236 150.4 98.9236 148.35 97.9136 148.09C97.5136 147.91 97.2336 148.15 97.0336 148.83ZM51.1836 170.08C52.7036 174.42 55.0536 178.61 58.8336 180.64C60.3536 181.33 61.7236 180.44 60.6136 179.43C57.2236 177.55 54.9236 174.42 53.0636 170.08C52.6036 168.87 50.7436 168.21 51.1836 170.08ZM56.5236 170.79C56.6536 172.05 57.8636 173.26 58.6336 173.13C59.4536 172.98 59.2736 171.69 58.5836 170.48C57.5836 168.84 56.2936 168.94 56.5236 170.79ZM44.6636 186.41C43.1136 187.22 43.1936 188.7 45.1136 189.71C47.8336 190.92 51.4736 190.69 53.6936 189.36C55.1136 188.35 56.2936 186.41 55.1336 186.06C53.8736 185.78 51.0336 186.06 48.7136 186.06C46.9536 186.06 45.7136 185.91 44.6636 186.41Z" fill="white"/>
<path d="M120.802 66.6302C121.512 72.8102 122.042 78.2102 121.842 83.2102C121.662 86.6302 121.842 89.5202 121.482 91.1002C121.132 92.5502 120.132 92.4702 118.262 91.4602C111.952 88.6802 107.512 87.2102 100.152 86.1002C97.3117 85.6502 96.8517 85.0902 97.6417 83.0602C101.962 72.7302 107.642 64.7102 116.942 58.4102C118.652 57.4602 119.602 58.1202 119.852 59.9102C120.212 61.5602 120.472 63.8902 120.802 66.6302ZM116.512 62.9202C110.252 66.2102 104.262 74.9302 101.812 81.3302C101.252 82.9002 101.942 83.7102 103.652 83.8602C108.192 84.4202 113.182 86.3502 118.222 88.6102C119.222 89.1202 119.752 88.6102 119.602 86.9802C119.852 79.2702 119.322 72.0502 117.642 63.9902C117.462 63.0202 117.122 62.5702 116.512 62.9202Z" fill="white"/>
<path d="M117.4 167.6C118.98 166.28 122.11 166.06 123.85 167.5C125.4 168.76 125.59 170.72 124.59 170.57C123.45 170.34 123.09 170.19 122.94 171.67C121.7 177.67 118.16 181.96 112.99 184.56C111.64 185.17 110.69 184.16 112.03 182.81C116.06 179.06 118.78 176.17 118.9 170.11C118.93 169.1 118.11 169.17 117.1 169.1C115.68 169.04 116.04 168.26 117.4 167.6Z" fill="white"/>
</svg>
